# xmcd
#
# Track frame offsets: 
#        150
#        10559
#        26252
#        38074
#        54899
#        69280
#        83687
#        97950
#        109030
#        119780
#        131611
#        140884
#
# Disc length: 2087 seconds
#
# Revision: 0
# Processed by: cddbd v1.4PL0 Copyright (c) Steve Scherf et al.
# Submitted via: ExactAudioCopy v0.90b3
#
DISCID=9208250c
DTITLE=The Fabulous Porkskins - Unplugged And Deep-Fried
DYEAR=2000
DGENRE=Country
TTITLE0=I Look At Bugs
TTITLE1=My Emotional Baggage
TTITLE2=Radio
TTITLE3=On My Butt
TTITLE4=Layaway Blues
TTITLE5=Talking In Tongues
TTITLE6=Falling In Love With Myself
TTITLE7=Speed-Dial
TTITLE8=You Will Surely Go To Hell
TTITLE9=Frankie And Johnny
TTITLE10=E-Mail From Jesus
TTITLE11=The Train Carrying Jimmie Rodgers Home
EXTD=
EXTT0=
EXTT1=
EXTT2=
EXTT3=
EXTT4=
EXTT5=
EXTT6=
EXTT7=
EXTT8=
EXTT9=
EXTT10=
EXTT11=
PLAYORDER=
